{
  "title": "San Andreas 2015 720p HDRiP x264 AC3 TiTAN",
  "uid": 12296232,
  "size": 2321930966,
  "categoryP": "video",
  "categoryS": "movies",
  "magnet": "?xt=urn:btih:0836bc05da3bcf177e49be06c413a88f54e911c0&amp;dn=San+Andreas+2015+720p+HDRiP+x264+AC3+TiTAN&amp;tr=udp%3A%2F%2Ftracker.openbittorrent.com%3A80&amp;tr=udp%3A%2F%2Fopen.demonii.com%3A1337&amp;tr=udp%3A%2F%2Ftracker.coppersurfer.tk%3A6969&amp;tr=udp%3A%2F%2Fexodus.desync.com%3A6969",
  "seeders": 1057,
  "leechers": 301,
  "uploader": "nicukent",
  "files": 2,
  "time": 1440620820,
  "description": " &lt;a href=&quot;http://i.imgur.com/Bv1oZfu.jpg&quot; rel=&quot;nofollow&quot; target=&quot;_NEW&quot;&gt;http://i.imgur.com/Bv1oZfu.jpg&lt;/a&gt;\n\n\nSource San Andreas 2015 720p WEB-DL AAC 2 0 H264-SRS thanks\n\nGeneral\n\nFormat                                   : Matroska\nFormat version                           : Version 2\nFile size                                : 2.16 GiB\nDuration                                 : 1h 54mn\nOverall bit rate mode                    : Variable\nOverall bit rate                         : 2 706 Kbps\nEncoded date                             : UTC 2015-08-26 02:56:14\n\nVideo\nID                                       : 1\nFormat                                   : AVC\nFormat/Info                              : Advanced Video Codec\nFormat profile                           : &lt;a class=&quot;__cf_email__&quot; href=&quot;/cdn-cgi/l/email-protection&quot; data-cfemail=&quot;632b0a040b232f574d52&quot;&gt;[email&amp;#160;protected]&lt;/a&gt;&lt;script data-cfhash='f9e31' type=&quot;text/javascript&quot;&gt;\n/* &lt;![CDATA[ */!function(){try{var t=&quot;currentScript&quot;in document?document.currentScript:function(){for(var t=document.getElementsByTagName(&quot;script&quot;),e=t.length;e--;)if(t[e].getAttribute(&quot;data-cfhash&quot;))return t[e]}();if(t&amp;&amp;t.previousSibling){var e,r,n,i,c=t.previousSibling,a=c.getAttribute(&quot;data-cfemail&quot;);if(a){for(e=&quot;&quot;,r=parseInt(a.substr(0,2),16),n=2;a.length-n;n+=2)i=parseInt(a.substr(n,2),16)^r,e+=String.fromCharCode(i);e=document.createTextNode(e),c.parentNode.replaceChild(e,c)}t.parentNode.removeChild(t);}}catch(u){}}()/* ]]&gt; */&lt;/script&gt;\nFormat settings, CABAC                   : Yes\nFormat settings, ReFrames                : 3 frames\nCodec ID                                 : V_MPEG4/ISO/AVC\nDuration                                 : 1h 54mn\nBit rate mode                            : Variable\nBit rate                                 : 2 428 Kbps\nMaximum bit rate                         : 40.0 Mbps\nWidth                                    : 1 280 pixels\nHeight                                   : 528 pixels\nDisplay aspect ratio                     : 2.40:1\nFrame rate mode                          : Constant\nFrame rate                               : 23.976 fps\nColor space                              : YUV\nChroma subsampling                       : 4:2:0\nBit depth                                : 8 bits\nScan type                                : Progressive\nBits/(Pixel*Frame)                       : 0.150\nStream size                              : 1.94 GiB (90%)\nDefault                                  : Yes\nForced                                   : No\nColor primaries                          : BT.709\nTransfer characteristics                 : BT.709\nMatrix coefficients                      : BT.709\n\nAudio\nID                                       : 2\nFormat                                   : AC-3\nFormat/Info                              : Audio Coding 3\nMode extension                           : CM (complete main)\nFormat settings, Endianness              : Big\nCodec ID                                 : A_AC3\nDuration                                 : 1h 54mn\nBit rate mode                            : Constant\nBit rate                                 : 224 Kbps\nChannel(s)                               : 2 channels\nChannel positions                        : Front: L R\nSampling rate                            : 48.0 KHz\nBit depth                                : 16 bits\nCompression mode                         : Lossy\nStream size                              : 183 MiB (8%)\nLanguage                                 : English\nDefault                                  : Yes\nForced                                   : No\n\n\n &lt;a href=&quot;\nhttp://i.imgur.com/8aG5hmJ.png&quot; rel=&quot;nofollow&quot; target=&quot;_NEW&quot;&gt;\nhttp://i.imgur.com/8aG5hmJ.png&lt;/a&gt; &lt;a href=&quot;\nhttp://i.imgur.com/ohAuDgS.png&quot; rel=&quot;nofollow&quot; target=&quot;_NEW&quot;&gt;\nhttp://i.imgur.com/ohAuDgS.png&lt;/a&gt; &lt;a href=&quot;\nhttp://i.imgur.com/A0w4O2j.png&quot; rel=&quot;nofollow&quot; target=&quot;_NEW&quot;&gt;\nhttp://i.imgur.com/A0w4O2j.png&lt;/a&gt; &lt;a href=&quot;\nhttp://i.imgur.com/d4jTDxe.png&quot; rel=&quot;nofollow&quot; target=&quot;_NEW&quot;&gt;\nhttp://i.imgur.com/d4jTDxe.png&lt;/a&gt; &lt;a href=&quot;\nhttp://i.imgur.com/O06sRZI.png&quot; rel=&quot;nofollow&quot; target=&quot;_NEW&quot;&gt;\nhttp://i.imgur.com/O06sRZI.png&lt;/a&gt; &lt;a href=&quot;\nhttp://i.imgur.com/HzHDlzA.png&quot; rel=&quot;nofollow&quot; target=&quot;_NEW&quot;&gt;\nhttp://i.imgur.com/HzHDlzA.png&lt;/a&gt;",
  "parsed": {
    "xt": "urn:btih:0836bc05da3bcf177e49be06c413a88f54e911c0",
    "dn": "San Andreas 2015 720p HDRiP x264 AC3 TiTAN",
    "tr": [
      "udp://exodus.desync.com:6969",
      "udp://open.demonii.com:1337",
      "udp://tracker.coppersurfer.tk:6969",
      "udp://tracker.openbittorrent.com:80"
    ],
    "infoHash": "0836bc05da3bcf177e49be06c413a88f54e911c0",
    "infoHashBuffer": {
      "type": "Buffer",
      "data": [
        8,
        54,
        188,
        5,
        218,
        59,
        207,
        23,
        126,
        73,
        190,
        6,
        196,
        19,
        168,
        143,
        84,
        233,
        17,
        192
      ]
    },
    "name": "San Andreas 2015 720p HDRiP x264 AC3 TiTAN",
    "announce": [
      "udp://exodus.desync.com:6969",
      "udp://open.demonii.com:1337",
      "udp://tracker.coppersurfer.tk:6969",
      "udp://tracker.openbittorrent.com:80"
    ],
    "urlList": []
  },
  "previous": 1358,
  "peers": 51,
  "last_updated": "2016-12-24T16:18:06.190Z"
}